<svg fill="none" height="2720" viewBox="0 0 2168 2720" width="2168" xmlns="http://www.w3.org/2000/svg" xmlns:xlink="http://www.w3.org/1999/xlink"><filter id="a" color-interpolation-filters="sRGB" filterUnits="userSpaceOnUse" height="1950.75" width="2614.29" x="-519.001" y="465.466"><feFlood flood-opacity="0" result="BackgroundImageFix"/><feBlend in="SourceGraphic" in2="BackgroundImageFix" mode="normal" result="shape"/><feGaussianBlur result="effect1_foregroundBlur_3077_51930" stdDeviation="25"/></filter><filter id="b" color-interpolation-filters="sRGB" filterUnits="userSpaceOnUse" height="1792.07" width="2884.79" x="-717.464" y="461.407"><feFlood flood-opacity="0" result="BackgroundImageFix"/><feBlend in="SourceGraphic" in2="BackgroundImageFix" mode="normal" result="shape"/><feGaussianBlur result="effect1_foregroundBlur_3077_51930" stdDeviation="50"/></filter><g filter="url(#a)" opacity=".05"><path d="m-469.001 2366.22c581.867-637.05 516.0379-1242.18 1598.811-998.38 313.72-139.87 567.19-308.6 820.92-807.282 357.86-289.4-389.05 912.402-759.32 821.772-20.94-5.13-41.47-9.95-61.6-14.49-10.54 4.7-21.14 9.37-31.82 14.01-804.936-124.25-875.586 311.65-1566.991 984.37z" fill="#6759ff"/></g><g filter="url(#b)" opacity=".15"><path d="m-617.464 2153.47c600.8689-538.38 635.4447-1105.55 1498.376-890.15 428.828-177.37 745.108-280.473 1089.588-664.82 384.97-252.214-478.23 868.99-837.59 741.83-91.27-32.3-174.937-57.78-251.998-77.01-379.095 156.8-846.1439 371.65-1498.376 890.15z" fill="#ba59ff"/></g></svg>